<svg width="18" height="18" viewBox="0 0 18 18" fill="none" xmlns="http://www.w3.org/2000/svg">
<g id="carbon:search">
<path id="Vector" d="M16.3125 15.5171L12.0645 11.2691C13.0853 10.0436 13.5943 8.47172 13.4857 6.88045C13.3771 5.28918 12.6592 3.80104 11.4813 2.72561C10.3034 1.65018 8.75627 1.07026 7.1617 1.10649C5.56713 1.14272 4.04792 1.79231 2.9201 2.92013C1.79228 4.04795 1.14269 5.56716 1.10646 7.16173C1.07023 8.7563 1.65015 10.3034 2.72558 11.4813C3.80101 12.6592 5.28914 13.3771 6.88042 13.4858C8.47169 13.5944 10.0436 13.0853 11.2691 12.0645L15.5171 16.3125L16.3125 15.5171ZM2.24997 7.3125C2.24997 6.31124 2.54688 5.33245 3.10316 4.49993C3.65943 3.66741 4.45009 3.01853 5.37514 2.63536C6.30019 2.2522 7.31809 2.15194 8.30012 2.34728C9.28215 2.54262 10.1842 3.02477 10.8922 3.73278C11.6002 4.44078 12.0824 5.34283 12.2777 6.32486C12.473 7.30689 12.3728 8.32479 11.9896 9.24984C11.6064 10.1749 10.9576 10.9655 10.125 11.5218C9.29252 12.0781 8.31374 12.375 7.31247 12.375C5.97027 12.3735 4.68347 11.8397 3.73439 10.8906C2.78531 9.94151 2.25146 8.65471 2.24997 7.3125Z" fill="#424242"/>
</g>
</svg>
