<svg width="20" height="20" viewBox="0 0 20 20" fill="none" xmlns="http://www.w3.org/2000/svg">
<g id="vuesax/bold/document-normal">
<g id="document-normal">
<path id="Vector" d="M17.2579 6.76665V14.6083C17.2579 16.6583 15.5829 18.3333 13.5329 18.3333H6.46621C4.41621 18.3333 2.74121 16.6583 2.74121 14.6083V6.76665C2.74121 5.34165 3.54121 4.09998 4.71621 3.47498C5.12454 3.25832 5.63288 3.54998 5.63288 4.01665C5.63288 5.34165 6.71621 6.42498 8.04121 6.42498H11.9579C13.2829 6.42498 14.3662 5.34165 14.3662 4.01665C14.3662 3.54998 14.8662 3.25832 15.2829 3.47498C16.4579 4.09998 17.2579 5.34165 17.2579 6.76665Z" fill="white"/>
<path id="Vector_2" d="M11.9585 1.66675H8.0418C7.17513 1.66675 6.4668 2.36675 6.4668 3.23341V4.01675C6.4668 4.88341 7.1668 5.58341 8.03346 5.58341H11.9585C12.8251 5.58341 13.5251 4.88341 13.5251 4.01675V3.23341C13.5335 2.36675 12.8251 1.66675 11.9585 1.66675Z" fill="white"/>
</g>
</g>
</svg>
