<svg width="24" height="24" viewBox="0 0 24 24" fill="none" xmlns="http://www.w3.org/2000/svg">
<path d="M21 22.0001H3C2.59 22.0001 2.25 21.6601 2.25 21.2501C2.25 20.8401 2.59 20.5001 3 20.5001H21C21.41 20.5001 21.75 20.8401 21.75 21.2501C21.75 21.6601 21.41 22.0001 21 22.0001Z" fill="#1A85D6"/>
<path d="M19.0201 3.4801C17.0801 1.5401 15.1801 1.4901 13.1901 3.4801L11.9801 4.6901C11.8801 4.7901 11.8401 4.9501 11.8801 5.0901C12.6401 7.7401 14.7601 9.8601 17.4101 10.6201C17.4501 10.6301 17.4901 10.6401 17.5301 10.6401C17.6401 10.6401 17.7401 10.6001 17.8201 10.5201L19.0201 9.3101C20.0101 8.3301 20.4901 7.3801 20.4901 6.4201C20.5001 5.4301 20.0201 4.4701 19.0201 3.4801Z" fill="#1A85D6"/>
<path d="M15.6098 11.5301C15.3198 11.3901 15.0398 11.2501 14.7698 11.0901C14.5498 10.9601 14.3398 10.8201 14.1298 10.6701C13.9598 10.5601 13.7598 10.4001 13.5698 10.2401C13.5498 10.2301 13.4798 10.1701 13.3998 10.0901C13.0698 9.81009 12.6998 9.45009 12.3698 9.05009C12.3398 9.03009 12.2898 8.96009 12.2198 8.87009C12.1198 8.75009 11.9498 8.55009 11.7998 8.32009C11.6798 8.17009 11.5398 7.95009 11.4098 7.73009C11.2498 7.46009 11.1098 7.19009 10.9698 6.91009C10.9486 6.8647 10.9281 6.81953 10.9083 6.77463C10.7607 6.44131 10.3261 6.34387 10.0683 6.60162L4.33983 12.3301C4.20983 12.4601 4.08983 12.7101 4.05983 12.8801L3.51983 16.7101C3.41983 17.3901 3.60983 18.0301 4.02983 18.4601C4.38983 18.8101 4.88983 19.0001 5.42983 19.0001C5.54983 19.0001 5.66983 18.9901 5.78983 18.9701L9.62983 18.4301C9.80983 18.4001 10.0598 18.2801 10.1798 18.1501L15.9011 12.4288C16.1607 12.1692 16.0628 11.7238 15.7252 11.5797C15.6872 11.5635 15.6488 11.547 15.6098 11.5301Z" fill="#1A85D6"/>
</svg>
